<mxfile host="app.diagrams.net" modified="2024-02-12T14:35:04.286Z" agent="Mozilla/5.0 (Macintosh; Intel Mac OS X 10_15_7) AppleWebKit/537.36 (KHTML, like Gecko) Chrome/121.0.0.0 Safari/537.36" etag="seUY3wYvmxd1hfiEzKY2" version="23.1.2" type="device">
  <diagram id="IeIk89UAV4FXAM-kmG9R" name="Page-1">
    <mxGraphModel dx="1020" dy="469" grid="1" gridSize="10" guides="1" tooltips="1" connect="1" arrows="1" fold="1" page="1" pageScale="1" pageWidth="827" pageHeight="1169" math="1" shadow="0">
      <root>
        <mxCell id="0" />
        <mxCell id="1" parent="0" />
        <mxCell id="4ZEgx2be2nUb7EtOW1EJ-133" value="" style="group" vertex="1" connectable="0" parent="1">
          <mxGeometry x="40" y="40" width="248.32999999999993" height="200" as="geometry" />
        </mxCell>
        <mxCell id="4ZEgx2be2nUb7EtOW1EJ-109" value="" style="group" vertex="1" connectable="0" parent="4ZEgx2be2nUb7EtOW1EJ-133">
          <mxGeometry width="248.32999999999987" height="200" as="geometry" />
        </mxCell>
        <mxCell id="4ZEgx2be2nUb7EtOW1EJ-66" value="" style="rounded=0;whiteSpace=wrap;html=1;container=0;" vertex="1" parent="4ZEgx2be2nUb7EtOW1EJ-109">
          <mxGeometry x="39.99666666666661" y="40" width="41.66666666666667" height="40" as="geometry" />
        </mxCell>
        <mxCell id="4ZEgx2be2nUb7EtOW1EJ-67" value="" style="rounded=0;whiteSpace=wrap;html=1;container=0;" vertex="1" parent="4ZEgx2be2nUb7EtOW1EJ-109">
          <mxGeometry x="81.66333333333324" y="40" width="41.66666666666667" height="40" as="geometry" />
        </mxCell>
        <mxCell id="4ZEgx2be2nUb7EtOW1EJ-68" value="" style="rounded=0;whiteSpace=wrap;html=1;fillColor=#647687;fontColor=#ffffff;container=0;" vertex="1" parent="4ZEgx2be2nUb7EtOW1EJ-109">
          <mxGeometry x="123.32999999999998" y="40" width="41.66666666666667" height="40" as="geometry" />
        </mxCell>
        <mxCell id="4ZEgx2be2nUb7EtOW1EJ-69" value="" style="rounded=0;whiteSpace=wrap;html=1;fillColor=#647687;fontColor=#ffffff;container=0;" vertex="1" parent="4ZEgx2be2nUb7EtOW1EJ-109">
          <mxGeometry x="164.9966666666666" y="40" width="41.66666666666667" height="40" as="geometry" />
        </mxCell>
        <mxCell id="4ZEgx2be2nUb7EtOW1EJ-70" value="" style="rounded=0;whiteSpace=wrap;html=1;fillColor=#647687;fontColor=#ffffff;container=0;" vertex="1" parent="4ZEgx2be2nUb7EtOW1EJ-109">
          <mxGeometry x="206.66333333333324" y="40" width="41.66666666666667" height="40" as="geometry" />
        </mxCell>
        <mxCell id="4ZEgx2be2nUb7EtOW1EJ-71" value="" style="rounded=0;whiteSpace=wrap;html=1;container=0;" vertex="1" parent="4ZEgx2be2nUb7EtOW1EJ-109">
          <mxGeometry x="39.99666666666661" y="80" width="41.66666666666667" height="40" as="geometry" />
        </mxCell>
        <mxCell id="4ZEgx2be2nUb7EtOW1EJ-72" value="" style="rounded=0;whiteSpace=wrap;html=1;fillColor=#647687;fontColor=#ffffff;container=0;" vertex="1" parent="4ZEgx2be2nUb7EtOW1EJ-109">
          <mxGeometry x="81.66333333333324" y="80" width="41.66666666666667" height="40" as="geometry" />
        </mxCell>
        <mxCell id="4ZEgx2be2nUb7EtOW1EJ-73" value="" style="rounded=0;whiteSpace=wrap;html=1;container=0;" vertex="1" parent="4ZEgx2be2nUb7EtOW1EJ-109">
          <mxGeometry x="123.32999999999998" y="80" width="41.66666666666667" height="40" as="geometry" />
        </mxCell>
        <mxCell id="4ZEgx2be2nUb7EtOW1EJ-74" value="" style="rounded=0;whiteSpace=wrap;html=1;container=0;" vertex="1" parent="4ZEgx2be2nUb7EtOW1EJ-109">
          <mxGeometry x="164.9966666666666" y="80" width="41.66666666666667" height="40" as="geometry" />
        </mxCell>
        <mxCell id="4ZEgx2be2nUb7EtOW1EJ-75" value="" style="rounded=0;whiteSpace=wrap;html=1;fillColor=#647687;fontColor=#ffffff;container=0;" vertex="1" parent="4ZEgx2be2nUb7EtOW1EJ-109">
          <mxGeometry x="206.66333333333324" y="80" width="41.66666666666667" height="40" as="geometry" />
        </mxCell>
        <mxCell id="4ZEgx2be2nUb7EtOW1EJ-76" value="" style="rounded=0;whiteSpace=wrap;html=1;fillColor=#647687;fontColor=#ffffff;container=0;" vertex="1" parent="4ZEgx2be2nUb7EtOW1EJ-109">
          <mxGeometry x="39.99666666666661" y="120" width="41.66666666666667" height="40" as="geometry" />
        </mxCell>
        <mxCell id="4ZEgx2be2nUb7EtOW1EJ-77" value="" style="rounded=0;whiteSpace=wrap;html=1;container=0;" vertex="1" parent="4ZEgx2be2nUb7EtOW1EJ-109">
          <mxGeometry x="81.66333333333324" y="120" width="41.66666666666667" height="40" as="geometry" />
        </mxCell>
        <mxCell id="4ZEgx2be2nUb7EtOW1EJ-78" value="" style="rounded=0;whiteSpace=wrap;html=1;fillColor=#647687;fontColor=#ffffff;container=0;" vertex="1" parent="4ZEgx2be2nUb7EtOW1EJ-109">
          <mxGeometry x="123.32999999999998" y="120" width="41.66666666666667" height="40" as="geometry" />
        </mxCell>
        <mxCell id="4ZEgx2be2nUb7EtOW1EJ-79" value="" style="rounded=0;whiteSpace=wrap;html=1;fillColor=#647687;fontColor=#ffffff;container=0;" vertex="1" parent="4ZEgx2be2nUb7EtOW1EJ-109">
          <mxGeometry x="164.9966666666666" y="120" width="41.66666666666667" height="40" as="geometry" />
        </mxCell>
        <mxCell id="4ZEgx2be2nUb7EtOW1EJ-80" value="" style="rounded=0;whiteSpace=wrap;html=1;container=0;" vertex="1" parent="4ZEgx2be2nUb7EtOW1EJ-109">
          <mxGeometry x="206.66333333333324" y="120" width="41.66666666666667" height="40" as="geometry" />
        </mxCell>
        <mxCell id="4ZEgx2be2nUb7EtOW1EJ-81" value="" style="rounded=0;whiteSpace=wrap;html=1;fillColor=#647687;fontColor=#ffffff;container=0;" vertex="1" parent="4ZEgx2be2nUb7EtOW1EJ-109">
          <mxGeometry x="39.99666666666661" y="160" width="41.66666666666667" height="40" as="geometry" />
        </mxCell>
        <mxCell id="4ZEgx2be2nUb7EtOW1EJ-82" value="" style="rounded=0;whiteSpace=wrap;html=1;fillColor=#647687;fontColor=#ffffff;container=0;" vertex="1" parent="4ZEgx2be2nUb7EtOW1EJ-109">
          <mxGeometry x="81.66333333333324" y="160" width="41.66666666666667" height="40" as="geometry" />
        </mxCell>
        <mxCell id="4ZEgx2be2nUb7EtOW1EJ-83" value="" style="rounded=0;whiteSpace=wrap;html=1;container=0;" vertex="1" parent="4ZEgx2be2nUb7EtOW1EJ-109">
          <mxGeometry x="123.32999999999998" y="160" width="41.66666666666667" height="40" as="geometry" />
        </mxCell>
        <mxCell id="4ZEgx2be2nUb7EtOW1EJ-84" value="" style="rounded=0;whiteSpace=wrap;html=1;fillColor=#647687;fontColor=#ffffff;container=0;" vertex="1" parent="4ZEgx2be2nUb7EtOW1EJ-109">
          <mxGeometry x="164.9966666666666" y="160" width="41.66666666666667" height="40" as="geometry" />
        </mxCell>
        <mxCell id="4ZEgx2be2nUb7EtOW1EJ-85" value="" style="rounded=0;whiteSpace=wrap;html=1;container=0;" vertex="1" parent="4ZEgx2be2nUb7EtOW1EJ-109">
          <mxGeometry x="206.66333333333324" y="160" width="41.66666666666667" height="40" as="geometry" />
        </mxCell>
        <mxCell id="4ZEgx2be2nUb7EtOW1EJ-97" value="$$d^-_0$$" style="text;html=1;strokeColor=none;fillColor=none;align=center;verticalAlign=middle;whiteSpace=wrap;rounded=0;container=0;" vertex="1" parent="4ZEgx2be2nUb7EtOW1EJ-109">
          <mxGeometry x="39.99999999999994" width="40" height="40" as="geometry" />
        </mxCell>
        <mxCell id="4ZEgx2be2nUb7EtOW1EJ-98" value="$$d^-_{-1}$$" style="text;html=1;strokeColor=none;fillColor=none;align=center;verticalAlign=middle;whiteSpace=wrap;rounded=0;container=0;" vertex="1" parent="4ZEgx2be2nUb7EtOW1EJ-109">
          <mxGeometry x="83.32999999999998" width="40" height="40" as="geometry" />
        </mxCell>
        <mxCell id="4ZEgx2be2nUb7EtOW1EJ-101" value="$$d^-_{-2}$$" style="text;html=1;strokeColor=none;fillColor=none;align=center;verticalAlign=middle;whiteSpace=wrap;rounded=0;container=0;" vertex="1" parent="4ZEgx2be2nUb7EtOW1EJ-109">
          <mxGeometry x="124.99999999999994" width="40" height="40" as="geometry" />
        </mxCell>
        <mxCell id="4ZEgx2be2nUb7EtOW1EJ-102" value="$$d^-_{-3}$$" style="text;html=1;strokeColor=none;fillColor=none;align=center;verticalAlign=middle;whiteSpace=wrap;rounded=0;container=0;" vertex="1" parent="4ZEgx2be2nUb7EtOW1EJ-109">
          <mxGeometry x="164.99999999999994" width="40" height="40" as="geometry" />
        </mxCell>
        <mxCell id="4ZEgx2be2nUb7EtOW1EJ-103" value="$$d^-_{-4}$$" style="text;html=1;strokeColor=none;fillColor=none;align=center;verticalAlign=middle;whiteSpace=wrap;rounded=0;container=0;" vertex="1" parent="4ZEgx2be2nUb7EtOW1EJ-109">
          <mxGeometry x="206.6599999999999" width="40" height="40" as="geometry" />
        </mxCell>
        <mxCell id="4ZEgx2be2nUb7EtOW1EJ-105" value="$$d^-_{1}$$" style="text;html=1;strokeColor=none;fillColor=none;align=center;verticalAlign=middle;whiteSpace=wrap;rounded=0;container=0;" vertex="1" parent="4ZEgx2be2nUb7EtOW1EJ-109">
          <mxGeometry y="80" width="40" height="40" as="geometry" />
        </mxCell>
        <mxCell id="4ZEgx2be2nUb7EtOW1EJ-106" value="$$d^-_{2}$$" style="text;html=1;strokeColor=none;fillColor=none;align=center;verticalAlign=middle;whiteSpace=wrap;rounded=0;container=0;" vertex="1" parent="4ZEgx2be2nUb7EtOW1EJ-109">
          <mxGeometry y="120" width="40" height="40" as="geometry" />
        </mxCell>
        <mxCell id="4ZEgx2be2nUb7EtOW1EJ-107" value="$$d^-_{3}$$" style="text;html=1;strokeColor=none;fillColor=none;align=center;verticalAlign=middle;whiteSpace=wrap;rounded=0;container=0;" vertex="1" parent="4ZEgx2be2nUb7EtOW1EJ-109">
          <mxGeometry y="160" width="40" height="40" as="geometry" />
        </mxCell>
        <mxCell id="4ZEgx2be2nUb7EtOW1EJ-125" value="" style="endArrow=none;dashed=1;html=1;dashPattern=1 3;strokeWidth=2;rounded=0;entryX=1;entryY=0;entryDx=0;entryDy=0;exitX=0;exitY=1;exitDx=0;exitDy=0;" edge="1" parent="4ZEgx2be2nUb7EtOW1EJ-109" source="4ZEgx2be2nUb7EtOW1EJ-84" target="4ZEgx2be2nUb7EtOW1EJ-105">
          <mxGeometry width="50" height="50" relative="1" as="geometry">
            <mxPoint x="-50" y="160" as="sourcePoint" />
            <mxPoint y="110" as="targetPoint" />
          </mxGeometry>
        </mxCell>
        <mxCell id="4ZEgx2be2nUb7EtOW1EJ-126" value="" style="endArrow=none;dashed=1;html=1;dashPattern=1 3;strokeWidth=2;rounded=0;entryX=1;entryY=1;entryDx=0;entryDy=0;exitX=0.968;exitY=0.908;exitDx=0;exitDy=0;exitPerimeter=0;" edge="1" parent="4ZEgx2be2nUb7EtOW1EJ-109" source="4ZEgx2be2nUb7EtOW1EJ-82" target="4ZEgx2be2nUb7EtOW1EJ-105">
          <mxGeometry width="50" height="50" relative="1" as="geometry">
            <mxPoint x="-50" y="160" as="sourcePoint" />
            <mxPoint y="110" as="targetPoint" />
          </mxGeometry>
        </mxCell>
        <mxCell id="4ZEgx2be2nUb7EtOW1EJ-127" value="" style="endArrow=none;dashed=1;html=1;dashPattern=1 3;strokeWidth=2;rounded=0;entryX=1;entryY=1;entryDx=0;entryDy=0;exitX=1;exitY=0;exitDx=0;exitDy=0;" edge="1" parent="4ZEgx2be2nUb7EtOW1EJ-109" source="4ZEgx2be2nUb7EtOW1EJ-107" target="4ZEgx2be2nUb7EtOW1EJ-81">
          <mxGeometry width="50" height="50" relative="1" as="geometry">
            <mxPoint x="-50" y="160" as="sourcePoint" />
            <mxPoint y="110" as="targetPoint" />
          </mxGeometry>
        </mxCell>
        <mxCell id="4ZEgx2be2nUb7EtOW1EJ-128" value="" style="endArrow=none;dashed=1;html=1;dashPattern=1 3;strokeWidth=2;rounded=0;entryX=1;entryY=0;entryDx=0;entryDy=0;exitX=0.976;exitY=0.908;exitDx=0;exitDy=0;exitPerimeter=0;" edge="1" parent="4ZEgx2be2nUb7EtOW1EJ-109" source="4ZEgx2be2nUb7EtOW1EJ-85" target="4ZEgx2be2nUb7EtOW1EJ-66">
          <mxGeometry width="50" height="50" relative="1" as="geometry">
            <mxPoint x="-50" y="160" as="sourcePoint" />
            <mxPoint y="110" as="targetPoint" />
          </mxGeometry>
        </mxCell>
        <mxCell id="4ZEgx2be2nUb7EtOW1EJ-129" value="" style="endArrow=none;dashed=1;html=1;dashPattern=1 3;strokeWidth=2;rounded=0;entryX=0;entryY=0;entryDx=0;entryDy=0;exitX=1;exitY=1;exitDx=0;exitDy=0;" edge="1" parent="4ZEgx2be2nUb7EtOW1EJ-109" source="4ZEgx2be2nUb7EtOW1EJ-80" target="4ZEgx2be2nUb7EtOW1EJ-68">
          <mxGeometry width="50" height="50" relative="1" as="geometry">
            <mxPoint x="-50" y="160" as="sourcePoint" />
            <mxPoint y="110" as="targetPoint" />
          </mxGeometry>
        </mxCell>
        <mxCell id="4ZEgx2be2nUb7EtOW1EJ-130" value="" style="endArrow=none;dashed=1;html=1;dashPattern=1 3;strokeWidth=2;rounded=0;entryX=0;entryY=0;entryDx=0;entryDy=0;exitX=1;exitY=1;exitDx=0;exitDy=0;" edge="1" parent="4ZEgx2be2nUb7EtOW1EJ-109" source="4ZEgx2be2nUb7EtOW1EJ-75" target="4ZEgx2be2nUb7EtOW1EJ-69">
          <mxGeometry width="50" height="50" relative="1" as="geometry">
            <mxPoint x="-50" y="160" as="sourcePoint" />
            <mxPoint y="110" as="targetPoint" />
          </mxGeometry>
        </mxCell>
        <mxCell id="4ZEgx2be2nUb7EtOW1EJ-131" value="" style="endArrow=none;dashed=1;html=1;dashPattern=1 3;strokeWidth=2;rounded=0;entryX=0;entryY=0;entryDx=0;entryDy=0;exitX=1;exitY=0;exitDx=0;exitDy=0;" edge="1" parent="4ZEgx2be2nUb7EtOW1EJ-109" source="4ZEgx2be2nUb7EtOW1EJ-75" target="4ZEgx2be2nUb7EtOW1EJ-70">
          <mxGeometry width="50" height="50" relative="1" as="geometry">
            <mxPoint x="-50" y="160" as="sourcePoint" />
            <mxPoint y="110" as="targetPoint" />
          </mxGeometry>
        </mxCell>
        <mxCell id="4ZEgx2be2nUb7EtOW1EJ-124" value="" style="endArrow=none;dashed=1;html=1;dashPattern=1 3;strokeWidth=2;rounded=0;entryX=0;entryY=0;entryDx=0;entryDy=0;" edge="1" parent="4ZEgx2be2nUb7EtOW1EJ-133" target="4ZEgx2be2nUb7EtOW1EJ-66">
          <mxGeometry width="50" height="50" relative="1" as="geometry">
            <mxPoint x="210" y="200" as="sourcePoint" />
            <mxPoint y="110" as="targetPoint" />
          </mxGeometry>
        </mxCell>
      </root>
    </mxGraphModel>
  </diagram>
</mxfile>
